<svg width="27" height="31" viewBox="0 0 27 31" fill="none" xmlns="http://www.w3.org/2000/svg">
<path d="M12 29C13.1 29 14 28.1 14 27H10C10 27.5304 10.2107 28.0391 10.5858 28.4142C10.9609 28.7893 11.4696 29 12 29ZM18 23V18C18 14.93 16.36 12.36 13.5 11.68V11C13.5 10.17 12.83 9.5 12 9.5C11.17 9.5 10.5 10.17 10.5 11V11.68C7.63 12.36 6 14.92 6 18V23L4 25V26H20V25L18 23Z" fill="#333333"/>
<circle cx="18" cy="9" r="9" fill="#2176D3"/>
<path d="M19.1309 13H17.6221V8.86914L17.6367 8.19043L17.6611 7.44824C17.4105 7.69889 17.2363 7.86328 17.1387 7.94141L16.3184 8.60059L15.5908 7.69238L17.8906 5.86133H19.1309V13Z" fill="white"/>
</svg>
